<svg id="Layer_1" data-name="Layer 1" xmlns="http://www.w3.org/2000/svg" x="0" y="0" width="951.43" height="168.97" viewBox="0 0 951.43 168.97">
    <defs>
        <style>
            .cls-1 {
                fill: #555;
            }

            .cls-2 {
                fill: #ff8a00;
            }
        </style>
    </defs>
    <title>Lansweeper-Full-Logo-Grey</title>
    <path class="cls-1"
        d="M172.57,171h17.19v87.11q0,12.75,6.69,19.63t19.09,6.88h23.52v15.92H218.52q-23.16,0-34.55-11.22t-11.4-34Z"
        transform="translate(-172.57 -170.98)" />
    <path class="cls-1"
        d="M314.14,300.52V256.28q0-13.92-7.87-22.57t-20.45-8.64q-12.48,0-20.49,8.55t-8,22q0,13.75,8.23,22.52t21,8.78a32.67,32.67,0,0,0,11.26-2,42.72,42.72,0,0,0,11-6.15V295.9a45,45,0,0,1-11.44,4.57A52.06,52.06,0,0,1,284.74,302,42.3,42.3,0,0,1,272.16,300a41,41,0,0,1-11.3-5.47A44.39,44.39,0,0,1,246.2,278a47.66,47.66,0,0,1-5.06-22q0-19.89,12.57-32.88t31.93-13A44.16,44.16,0,0,1,309,216.57a43,43,0,0,1,16.28,17.64A40.23,40.23,0,0,1,329,245.29a105.66,105.66,0,0,1,1.13,18v37.27Z"
        transform="translate(-172.57 -170.98)" />
    <path class="cls-1"
        d="M349.14,300.52v-48.4q0-19.35,10.32-30.66T387,210.15q17.19,0,27.41,11.31t10.22,30.66v48.4H408.84V249.23q0-10.5-6.1-17.1T387,225.53a20.7,20.7,0,0,0-15.78,6.6q-6.19,6.6-6.2,17.1v51.29Z"
        transform="translate(-172.57 -170.98)" />
    <path class="cls-2"
        d="M441,285.32h38.35q5.79,0,9.09-2.26a7.17,7.17,0,0,0,3.3-6.24,7.58,7.58,0,0,0-2.48-5.7q-2.49-2.36-9.37-5.25l-15.19-6.15q-13.4-5.43-18.46-11.08t-5.06-14.43q0-10.86,7.69-16.64t22.07-5.79h32.83v14.83H466.65a11.21,11.21,0,0,0-7.06,2,6.73,6.73,0,0,0-2.53,5.61,6.63,6.63,0,0,0,2.26,4.89,25,25,0,0,0,7.51,4.34l16,6.51Q497.77,256.1,503,261.8t5.2,14.47q0,12.32-9.14,18.28t-28.13,6H441Z"
        transform="translate(-172.57 -170.98)" />
    <path class="cls-2"
        d="M648.83,211.78v51.29q0,18.09-9.5,28.58t-25.51,10.49a32.87,32.87,0,0,1-27.23-13.65,36.15,36.15,0,0,1-12.21,10.22,33.11,33.11,0,0,1-15,3.43q-16,0-25.56-10.53t-9.54-28.54V211.78H540.1v54.09q0,9.4,5.29,15.15t14,5.75a18.36,18.36,0,0,0,14-5.79q5.42-5.79,5.42-15.11V211.78h15.74v54.09q0,9.4,5.3,15.15t14,5.75A18.11,18.11,0,0,0,627.71,281q5.37-5.79,5.38-15.11V211.78Z"
        transform="translate(-172.57 -170.98)" />
    <path class="cls-2"
        d="M753.67,261.26q-3.34,19-15.38,30t-29.31,11a43.36,43.36,0,0,1-11.62-1.59,42.18,42.18,0,0,1-10.81-4.66,47,47,0,0,1-19-57.62,47.4,47.4,0,0,1,9.81-15A43.87,43.87,0,0,1,709.16,210a42.44,42.44,0,0,1,24.11,7.1q10.62,7.1,17.23,20.67l-58.16,32.2-6.7-12,43.15-24.06a27,27,0,0,0-8.95-6.69A25.92,25.92,0,0,0,709,224.89a26.28,26.28,0,0,0-20.12,8.91q-8.19,8.91-8.19,22t8.23,22a27.35,27.35,0,0,0,39,1.49q7.65-7.46,9.55-20.48Z"
        transform="translate(-172.57 -170.98)" />
    <path class="cls-2"
        d="M854.08,261.26q-3.36,19-15.38,30t-29.31,11a43.3,43.3,0,0,1-11.62-1.59A42,42,0,0,1,787,296.08a47,47,0,0,1-19.05-57.62,47.6,47.6,0,0,1,9.82-15A43.87,43.87,0,0,1,809.57,210a42.44,42.44,0,0,1,24.11,7.1q10.62,7.1,17.23,20.67l-58.16,32.2-6.7-12,43.15-24.06a27.05,27.05,0,0,0-9-6.69,25.84,25.84,0,0,0-10.85-2.27,26.31,26.31,0,0,0-20.13,8.91q-8.19,8.91-8.18,22t8.23,22a27.35,27.35,0,0,0,39,1.49q7.65-7.46,9.54-20.48Z"
        transform="translate(-172.57 -170.98)" />
    <path class="cls-2"
        d="M868.82,340V263.25A104.8,104.8,0,0,1,870,245.7a42.34,42.34,0,0,1,3.75-11.49,41.24,41.24,0,0,1,16.15-17.68,45.12,45.12,0,0,1,23.66-6.38q19.35,0,31.93,13T958,256a48.36,48.36,0,0,1-3.12,17.28,45.18,45.18,0,0,1-9,14.65A41.06,41.06,0,0,1,931.6,298.3,42.71,42.71,0,0,1,914.23,302a52,52,0,0,1-12.62-1.49,45,45,0,0,1-11.44-4.57V278.81a40.59,40.59,0,0,0,11,6.15,33.79,33.79,0,0,0,11.4,2q12.75,0,21-8.78t8.23-22.52q0-13.38-8.05-22t-20.63-8.6q-12.57,0-20.44,8.64t-7.87,22.57V340Z"
        transform="translate(-172.57 -170.98)" />
    <path class="cls-2"
        d="M1058.6,261.26q-3.35,19-15.38,30t-29.31,11a43.36,43.36,0,0,1-11.62-1.59,42.33,42.33,0,0,1-10.81-4.66,47,47,0,0,1-19-57.62,47.4,47.4,0,0,1,9.81-15A43.87,43.87,0,0,1,1014.09,210a42.44,42.44,0,0,1,24.11,7.1q10.63,7.1,17.23,20.67l-58.16,32.2-6.69-12,43.14-24.06a27,27,0,0,0-9-6.69,25.92,25.92,0,0,0-10.86-2.27,26.28,26.28,0,0,0-20.12,8.91q-8.19,8.91-8.19,22t8.23,22a27.35,27.35,0,0,0,39,1.49q7.65-7.46,9.55-20.48Z"
        transform="translate(-172.57 -170.98)" />
    <path class="cls-2"
        d="M1074.7,300.52V211.78h14.65v13.11a25,25,0,0,1,11.22-11.26q7.14-3.48,19.27-3.48H1124v15.38h-2.44q-16.38,0-23.66,7.78t-7.28,25.32v41.89Z"
        transform="translate(-172.57 -170.98)" />
</svg>